<svg xmlns="http://www.w3.org/2000/svg" viewBox="0 0 256 256" style="enable-background:new 0 0 256 256" xml:space="preserve"><path d="M128 0C57.3 0 0 57.3 0 128s57.3 128 128 128 128-57.3 128-128C255.9 57.3 198.7.1 128 0zm46.3 160.4c3.9 3.8 4 10 .2 13.9-3.8 3.9-10 4-13.9.2l-.2-.2-32.4-32.4-32.4 32.4c-3.9 3.8-10.1 3.7-13.9-.2-3.7-3.8-3.7-9.9 0-13.7l32.4-32.4-32.4-32.4c-3.8-3.9-3.7-10.1.2-13.9 3.8-3.7 9.9-3.7 13.7 0l32.4 32.4 32.4-32.4c3.9-3.8 10.1-3.7 13.9.2 3.7 3.8 3.7 9.9 0 13.7L141.9 128l32.4 32.4z"/></svg>
